<svg xmlns="http://www.w3.org/2000/svg"  viewBox="0 0 64 64" width="64px" height="64px" clip-rule="evenodd" baseProfile="basic"><path fill="#f9e3ae" fill-rule="evenodd" d="M3.995,32.003	c0-14.441,10.953-26.343,25-27.842v8.064c-9.619,1.449-17,9.757-17,19.777c0,11.04,8.961,20.001,20.001,20.001	s20.001-8.961,20.001-20.001c0-1.444-0.153-2.852-0.444-4.209l6.76-5.371c1.089,2.989,1.684,6.216,1.684,9.58	c0,15.456-12.545,28.002-28.001,28.002S3.995,47.459,3.995,32.003z" clip-rule="evenodd"/><path fill="#ed7899" d="M21.999,32.001c0-5.519,4.48-9.999,9.999-9.999	c2.249,0,4.327,0.745,5.999,2.001V4.644c5.899,1.289,11.104,4.44,14.968,8.804l-4.552,7.129c-1.677-2.404-3.869-4.424-6.415-5.897	l-0.001,17.32c0,5.519-4.48,9.999-9.999,9.999S21.999,37.519,21.999,32.001z"/><path fill="#efc88e" fill-rule="evenodd" d="M8.57,47.341	c1.652-1.261,4.027-1.048,5.425,0.533c4.405,4.992,10.837,8.131,18.001,8.131c7.188,0,13.641-3.161,18.048-8.185	c1.392-1.588,3.768-1.808,5.424-0.549c-4.997,7.665-13.647,12.735-23.472,12.735C22.201,60.005,13.574,54.966,8.57,47.341z" clip-rule="evenodd"/><path fill="#8d6c9f" fill-rule="evenodd" d="M2.995,32.003	c0-14.957,11.344-27.283,25.893-28.835c0.591-0.064,1.107,0.4,1.107,0.993v8.064c0,0.495-0.363,0.916-0.852,0.989	c-9.136,1.377-16.148,9.271-16.148,18.788c0,10.488,8.513,19.001,19.001,19.001c10.487,0,19.001-8.513,19.001-19.001	c0-1.372-0.147-2.711-0.423-3.999c-0.08-0.372,0.059-0.756,0.356-0.993l6.76-5.371c0.533-0.424,1.328-0.2,1.561,0.441	c1.129,3.097,1.745,6.44,1.745,9.921c0,16.009-12.993,29.002-29.001,29.002C15.987,61.005,2.995,48.013,2.995,32.003z M58.998,32.003c0-2.433-0.324-4.792-0.928-7.035l-0.272-0.857l-5.167,4.104l0.247,1.547c0.079,0.736,0.12,1.484,0.12,2.241	c0,11.593-9.409,21.001-21.001,21.001c-11.593,0-21.001-9.408-21.001-21.001c0-9.863,6.811-18.145,15.985-20.396l1.015-0.201V5.328	l-1.399,0.216C14.277,8.047,4.995,18.95,4.995,32.003c0,14.904,12.097,27.002,27.001,27.002	C46.899,59.005,58.998,46.907,58.998,32.003z" clip-rule="evenodd"/><path fill="#e0678f" fill-rule="evenodd" d="M22.071,33.209	c1.764-0.591,3.761,0.119,4.729,1.791c1.041,1.8,2.977,3,5.197,3c2.215,0,4.151-1.197,5.195-3c0.967-1.672,2.965-2.381,4.731-1.789	c-0.597,4.949-4.816,8.789-9.925,8.789C26.887,41.999,22.667,38.159,22.071,33.209z" clip-rule="evenodd"/><path fill="#f283a5" fill-rule="evenodd" d="M46.05,12.549	c-1.225-0.889-2.537-1.664-3.921-2.309c-1.913-0.893-2.788-3.111-2.045-5.052c4.327,1.305,8.213,3.629,11.379,6.692	C50.126,13.477,47.761,13.789,46.05,12.549z" clip-rule="evenodd"/><path fill="#8d6c9f" fill-rule="evenodd" d="M20.999,32.001	c0-6.071,4.927-10.999,10.999-10.999c1.236,0,2.427,0.205,3.537,0.584l1.46,0.632l0.001-17.573c0-0.637,0.589-1.112,1.213-0.976	c6.111,1.336,11.503,4.6,15.503,9.117c0.296,0.335,0.335,0.825,0.095,1.201l-4.552,7.129c-0.384,0.6-1.256,0.619-1.664,0.035	c-1.196-1.713-2.667-3.221-4.347-4.459l-0.248-0.163v15.472c0,6.071-4.928,10.997-10.999,10.997	C25.926,42.999,20.999,38.073,20.999,32.001z M40.997,32.001l0.001-17.32c0-0.768,0.835-1.249,1.5-0.865	c2.004,1.161,3.8,2.644,5.315,4.377l0.515,0.659l3.371-5.279l-0.94-0.983c-3.031-2.931-6.744-5.157-10.877-6.419L38.997,5.94v18.063	c0,0.823-0.944,1.295-1.601,0.8c-1.505-1.131-3.373-1.801-5.397-1.801c-4.967,0-8.999,4.033-8.999,8.999	c0,4.967,4.032,8.999,8.999,8.999C36.963,40.999,40.997,36.967,40.997,32.001z" clip-rule="evenodd"/><path fill="#8d6c9f" fill-rule="evenodd" d="M31.003,48.015l-0.024-2	c-0.007-0.551,0.436-1.004,0.988-1.011c0.551-0.007,1.004,0.436,1.011,0.988l0.024,2c0.007,0.551-0.436,1.004-0.988,1.011	C31.463,49.01,31.01,48.567,31.003,48.015z M36.257,47.441l-0.619-1.901c-0.171-0.525,0.117-1.091,0.641-1.261	c0.525-0.171,1.091,0.117,1.261,0.641l0.619,1.901c0.171,0.525-0.117,1.091-0.641,1.261C36.993,48.253,36.427,47.965,36.257,47.441z M26.427,48.063c-0.521-0.181-0.797-0.752-0.616-1.273l0.656-1.888c0.181-0.521,0.752-0.797,1.273-0.616	c0.521,0.181,0.797,0.752,0.616,1.273l-0.656,1.888C27.519,47.969,26.949,48.245,26.427,48.063z M41.089,45.197l-1.227-1.579	c-0.339-0.436-0.26-1.065,0.176-1.404c0.436-0.339,1.065-0.26,1.404,0.176l1.227,1.579c0.339,0.436,0.26,1.065-0.176,1.404	C42.057,45.711,41.427,45.633,41.089,45.197z M21.483,45.361c-0.433-0.341-0.509-0.971-0.169-1.405l1.235-1.573	c0.341-0.433,0.971-0.509,1.405-0.169c0.433,0.341,0.509,0.971,0.169,1.405l-1.235,1.573C22.547,45.625,21.918,45.701,21.483,45.361	z M44.91,41.49l-1.683-1.083c-0.464-0.299-0.599-0.917-0.3-1.381c0.299-0.464,0.917-0.599,1.381-0.3l1.683,1.083	c0.464,0.299,0.599,0.917,0.3,1.381C45.993,41.654,45.374,41.789,44.91,41.49z M17.677,41.173c-0.295-0.467-0.155-1.084,0.313-1.379	l1.693-1.067c0.467-0.295,1.084-0.155,1.379,0.313c0.295,0.467,0.155,1.084-0.313,1.379l-1.693,1.067	C18.589,41.781,17.971,41.641,17.677,41.173z M15.482,36.043c-0.143-0.533,0.176-1.081,0.709-1.223l1.933-0.515	c0.533-0.143,1.081,0.176,1.223,0.709c0.143,0.533-0.176,1.081-0.709,1.223l-1.933,0.515C16.171,36.895,15.623,36.577,15.482,36.043	z M47.307,36.741l-1.944-0.467c-0.536-0.129-0.867-0.669-0.739-1.207c0.129-0.536,0.669-0.867,1.207-0.739l1.944,0.467	c0.536,0.129,0.867,0.669,0.739,1.207C48.385,36.538,47.845,36.869,47.307,36.741z" clip-rule="evenodd"/><path fill="#8d6c9f" fill-rule="evenodd" d="M17.509,27.967	c-0.52-0.184-0.793-0.755-0.611-1.276c1.152-3.269,3.333-6.052,6.157-7.959c0.457-0.309,1.079-0.188,1.388,0.269	c0.309,0.457,0.188,1.079-0.269,1.388c-2.472,1.669-4.381,4.108-5.389,6.967C18.601,27.877,18.03,28.15,17.509,27.967z" clip-rule="evenodd"/><path fill="#8d6c9f" fill-rule="evenodd" d="M26.077,18.178	c-0.183-0.52,0.091-1.092,0.612-1.275c1.661-0.585,3.448-0.904,5.308-0.904c0.551,0,1,0.449,1,1c0,0.552-0.449,1-1,1	c-1.629,0-3.192,0.28-4.645,0.791C26.831,18.973,26.259,18.699,26.077,18.178z" clip-rule="evenodd"/></svg>