<svg fill="#1A1A1A" xmlns="http://www.w3.org/2000/svg"  viewBox="0 0 64 64" width="64px" height="64px"><path d="M 28.964844 3.1621094 A 1.0001 1.0001 0 0 0 28.888672 3.1660156 C 14.340856 4.7184553 2.9941406 17.057263 2.9941406 32.003906 C 2.9941406 48.001012 15.998988 61.003906 31.996094 61.003906 C 47.993243 61.003906 60.996094 47.999059 60.996094 32.001953 C 60.996094 28.520038 60.380096 25.176514 59.251953 22.080078 A 1.0001 1.0001 0 0 0 57.691406 21.638672 L 50.931641 27.009766 A 1.0001 1.0001 0 0 0 50.576172 28.001953 C 50.852504 29.290555 50.996094 30.62859 50.996094 32.001953 C 50.996094 42.50083 42.494971 51.003906 31.996094 51.003906 C 21.497217 51.003906 12.994141 42.50083 12.994141 32.001953 C 12.994141 22.473038 20.007768 14.589247 29.144531 13.212891 A 1.0001 1.0001 0 0 0 29.994141 12.224609 L 29.994141 4.1601562 A 1.0001 1.0001 0 0 0 28.964844 3.1621094 z M 38.011719 3.6445312 A 1.0001 1.0001 0 0 0 36.996094 4.6445312 L 36.996094 22.355469 C 35.477418 21.565319 33.821921 21.001953 31.998047 21.001953 C 25.937886 21.001953 20.998047 25.941792 20.998047 32.001953 C 20.998047 38.061212 25.937886 42.998047 31.998047 42.998047 C 38.058208 42.998047 42.996094 38.060161 42.996094 32 L 42.998047 16.648438 C 44.753886 17.909681 46.356354 19.374614 47.59375 21.148438 A 1.0001 1.0001 0 0 0 49.255859 21.115234 L 53.808594 13.986328 A 1.0001 1.0001 0 0 0 53.712891 12.785156 C 49.711748 8.2663207 44.322128 5.003335 38.210938 3.6679688 A 1.0001 1.0001 0 0 0 38.011719 3.6445312 z M 27.994141 5.3808594 L 27.994141 11.445312 C 18.323239 13.324974 10.994141 21.796089 10.994141 32.001953 C 10.994141 43.583076 20.414971 53.003906 31.996094 53.003906 C 43.577217 53.003906 52.996094 43.583076 52.996094 32.001953 C 52.996094 30.711615 52.82311 29.465707 52.599609 28.238281 L 57.746094 24.150391 C 58.507054 26.644083 58.996094 29.258007 58.996094 32.001953 C 58.996094 46.916847 46.910945 59.003906 31.996094 59.003906 C 17.0812 59.003906 4.9941406 46.9188 4.9941406 32.003906 C 4.9941406 18.460217 14.997644 7.3274663 27.994141 5.3808594 z M 38.996094 5.9902344 C 43.926069 7.3167332 48.296805 9.9723879 51.685547 13.595703 L 48.285156 18.919922 C 46.661229 16.901653 44.752949 15.119037 42.498047 13.814453 A 1.0001 1.0001 0 0 0 40.998047 14.679688 L 40.996094 32 C 40.996094 36.977839 36.975886 40.998047 31.998047 40.998047 C 27.020208 40.998047 22.998047 36.978694 22.998047 32.001953 C 22.998047 27.024114 27.020208 23.001953 31.998047 23.001953 C 34.026208 23.001953 35.890778 23.671654 37.396484 24.802734 A 1.0001 1.0001 0 0 0 38.996094 24.003906 L 38.996094 5.9902344 z M 31.996094 15.998047 C 30.137797 15.998047 28.350862 16.317596 26.689453 16.902344 A 1.0001 1.0001 0 1 0 27.353516 18.789062 C 28.806107 18.277811 30.36639 17.998047 31.996094 17.998047 A 1.0001 1.0001 0 1 0 31.996094 15.998047 z M 23.587891 18.552734 A 1.0001 1.0001 0 0 0 23.054688 18.730469 C 20.230391 20.637508 18.050795 23.422122 16.898438 26.691406 A 1.0001 1.0001 0 1 0 18.785156 27.355469 C 19.792797 24.496753 21.702124 22.057632 24.173828 20.388672 A 1.0001 1.0001 0 0 0 23.587891 18.552734 z M 18.390625 34.267578 A 1.0001 1.0001 0 0 0 18.125 34.304688 L 16.191406 34.820312 A 1.0001 1.0001 0 1 0 16.707031 36.751953 L 18.638672 36.236328 A 1.0001 1.0001 0 0 0 18.390625 34.267578 z M 45.533203 34.296875 A 1.0001 1.0001 0 0 0 45.365234 36.271484 L 47.308594 36.740234 A 1.0002672 1.0002672 0 0 0 47.775391 34.794922 L 45.832031 34.328125 A 1.0001 1.0001 0 0 0 45.533203 34.296875 z M 43.742188 38.558594 A 1.0001 1.0001 0 0 0 43.226562 40.40625 L 44.910156 41.490234 A 1.0001 1.0001 0 1 0 45.992188 39.808594 L 44.308594 38.724609 A 1.0001 1.0001 0 0 0 43.742188 38.558594 z M 20.220703 38.564453 A 1.0001 1.0001 0 0 0 19.683594 38.726562 L 17.990234 39.792969 A 1.0001 1.0001 0 1 0 19.056641 41.484375 L 20.75 40.417969 A 1.0001 1.0001 0 0 0 20.220703 38.564453 z M 23.296875 41.990234 A 1.0001 1.0001 0 0 0 22.550781 42.382812 L 21.316406 43.955078 A 1.0001 1.0001 0 1 0 22.888672 45.191406 L 24.123047 43.617188 A 1.0001 1.0001 0 0 0 23.296875 41.990234 z M 40.667969 41.992188 A 1.0001 1.0001 0 0 0 39.863281 43.617188 L 41.089844 45.195312 A 1.0001 1.0001 0 1 0 42.667969 43.96875 L 41.441406 42.388672 A 1.0001 1.0001 0 0 0 40.667969 41.992188 z M 27.4375 44.216797 A 1.0001 1.0001 0 0 0 26.46875 44.902344 L 25.8125 46.789062 A 1.0001 1.0001 0 1 0 27.701172 47.445312 L 28.357422 45.558594 A 1.0001 1.0001 0 0 0 27.4375 44.216797 z M 36.556641 44.216797 A 1.0001 1.0001 0 0 0 35.638672 45.539062 L 36.257812 47.439453 A 1.000281 1.000281 0 1 0 38.160156 46.820312 L 37.541016 44.919922 A 1.0001 1.0001 0 0 0 36.556641 44.216797 z M 31.951172 44.988281 A 1.0001 1.0001 0 0 0 30.978516 46.015625 L 31.003906 48.015625 A 1.0001 1.0001 0 1 0 33.001953 47.990234 L 32.978516 45.990234 A 1.0001 1.0001 0 0 0 31.951172 44.988281 z"/></svg>